<svg xmlns="http://www.w3.org/2000/svg" version="1.1" xmlns:xlink="http://www.w3.org/1999/xlink" xmlns:svgjs="http://svgjs.dev/svgjs" width="1673" height="510" preserveAspectRatio="none" viewBox="0 0 1673 510"><g mask="url(&quot;#SvgjsMask1024&quot;)" fill="none"><rect width="1673" height="510" x="0" y="0" fill="rgba(78, 180, 17, 1)"></rect><path d="M1756.6500000000003 510L0 510 L0 294.8Q46.39 257.55, 83.65 303.94Q131.9 268.54, 167.3 316.79Q246.68 256.76, 306.7166666666667 336.14Q325.3 271.07, 390.3666666666667 289.65Q470.57 230.44, 529.7833333333333 310.65Q612.02 253.47, 669.1999999999999 335.7Q688.71 271.56, 752.8499999999999 291.07Q830.55 229.35, 892.2666666666665 307.05Q939.51 214.88, 1031.6833333333332 262.13Q1136.82 227.85, 1171.1 332.98Q1185.51 263.75, 1254.75 278.16Q1290.82 230.58, 1338.4 266.65Q1420.01 208.84, 1477.8166666666668 290.45Q1566.73 239.94, 1617.2333333333336 328.85Q1677.67 249.87, 1756.6500000000003 310.31z" fill="rgba(57, 116, 22, 1)"></path><path d="M1700.8833333333337 510L0 510 L0 401.73Q39.44 357.52, 83.65 396.95Q147.79 321.68, 223.06666666666666 385.82Q265.87 289.21, 362.48333333333335 332.02Q447.49 277.61, 501.9 362.62Q583.47 304.78, 641.3166666666666 386.35Q660.53 321.91, 724.9666666666666 341.12Q781.63 314.13, 808.6166666666666 370.79Q868.3 346.82, 892.2666666666665 406.5Q895.22 325.81, 975.9166666666665 328.76Q1052.94 266.37, 1115.3333333333333 343.39Q1170.65 315.05, 1198.9833333333333 370.37Q1249.06 281.03, 1338.4 331.11Q1417.4 270.69, 1477.8166666666668 349.69Q1562.21 294.67, 1617.2333333333336 379.06Q1636.71 314.88, 1700.8833333333337 334.36z" fill="rgba(48, 124, 3, 1)"></path><path d="M1756.6500000000003 510L0 510 L0 461.09Q43.65 421.09, 83.65 464.74Q138.6 380.28, 223.06666666666666 435.23Q251.06 379.57, 306.7166666666667 407.57Q342.71 359.92, 390.3666666666667 395.91Q426.2 348.1, 474.01666666666665 383.93Q534.12 360.38, 557.6666666666666 420.48Q637.27 360.67, 697.0833333333333 440.28Q753.62 413.16, 780.7333333333332 469.7Q819.75 369.3, 920.1499999999999 408.32Q999.31 348.07, 1059.5666666666666 427.23Q1138.81 367.06, 1198.9833333333333 446.3Q1274.26 382.16, 1338.4 457.43Q1384.75 364.37, 1477.8166666666668 410.72Q1558.46 351.95, 1617.2333333333336 432.59Q1701.83 377.77, 1756.6500000000003 462.36z" fill="rgba(85, 150, 46, 1)"></path><path d="M1673.0000000000005 510L0 510 L0 472.07Q79.17 411.83, 139.41666666666666 491Q220.61 432.77, 278.8333333333333 513.96Q293.65 445.13, 362.48333333333335 459.94Q409.9 423.7, 446.1333333333333 471.12Q542.04 427.61, 585.55 523.52Q644.23 442.78, 724.9666666666666 501.46Q747.09 439.93, 808.6166666666666 462.05Q903.7 417.72, 948.0333333333332 512.81Q983.65 464.78, 1031.6833333333332 500.4Q1051.53 436.59, 1115.3333333333333 456.44Q1163.98 421.44, 1198.9833333333333 470.09Q1250.91 438.36, 1282.6333333333334 490.29Q1308.24 432.25, 1366.2833333333335 457.86Q1430.08 438, 1449.9333333333336 501.8Q1504.97 417.42, 1589.3500000000004 472.45Q1623.76 423.2, 1673.0000000000005 457.61z" fill="rgba(255, 250, 242, 1)"></path></g><defs><mask id="SvgjsMask1024"><rect width="1673" height="510" fill="#ffffff"></rect></mask></defs></svg>