<svg id="a13315b2-f86b-4a1e-92c0-3a5cbdaf4eec" data-name="Capa 1" xmlns="http://www.w3.org/2000/svg" width="2528" height="851" viewBox="0 0 2528 851">
  <title>Promart logo 2019 con fondo</title>
  <g>
    <rect width="2528" height="851" style="fill: #ff6e00"/>
    <g>
      <path d="M1524.6,605.4h0a30.1,30.1,0,0,1-16.1-39.5,30.6,30.6,0,0,1,7.7-10.8L1663.6,423,1769,509.4V499.2a30.6,30.6,0,0,1,30.5-30.5h0a30.6,30.6,0,0,1,30.5,30.5h0v82.1a29.7,29.7,0,0,1-29.7,29.7h0a32.3,32.3,0,0,1-21.4-8l-114-98.7-105,95A33.4,33.4,0,0,1,1524.6,605.4ZM1512,677.5h0a30.6,30.6,0,0,1,30.5-30.5h249.1a30.6,30.6,0,0,1,30.5,30.5h0a30.6,30.6,0,0,1-30.5,30.5H1542.5a30.4,30.4,0,0,1-30.5-30.5Z" transform="translate(-1255 -222)" style="fill: #fff"/>
      <path d="M1923.9,484h96.4c52.8.3,73.9,43.8,73.9,70.7,0,18.4-9.9,78-73.6,79.3H1990v71h-66Zm66.1,50.1v56l11.8.6c15.1,0,27.8-10,27.8-28.6,0-10.5-6.8-28.6-30.3-27.4Z" transform="translate(-1255 -222)" style="fill: #fff"/>
      <path d="M2128,484h97.6c69.8-2.2,79.8,46.5,79.8,64.1,0,24.4-12.5,57.4-42.4,58.7,10.9,5,54.3,78.6,63.5,98.2h-76.2c-3.5-7.3-36.4-75-43.5-75H2193v75h-65Zm66,49v53h16.3c22.6,0,29.5-17.9,29.5-26.7,0-18-14.3-26.3-30.8-26.3Z" transform="translate(-1255 -222)" style="fill: #fff"/>
      <path d="M3131.9,483h96.9c70-2.2,80,46.7,80,64.4,0,24.5-12.5,57.7-42.4,58.9,11,5.1,54.5,78.9,63.7,98.7h-75.8c-3.5-7.3-36.3-75-43.5-75H3197v75h-65Zm66.1,50v53h16.2c22.5,0,29.4-17.9,29.4-26.7,0-18-14.3-26.3-30.7-26.3Z" transform="translate(-1255 -222)" style="fill: #fff"/>
      <path d="M2455.4,479.3c96.9-.6,113.6,84.2,113.6,114.7s-14.2,115.2-113.6,114.5S2341.5,625.1,2341.5,594,2354.5,480,2455.4,479.3Zm-1.3,179.6c14.4,0,48.7-5.7,48.1-63.7-.2-19.1-1.8-64.3-48.1-63.7-41.6.6-47.4,35.1-48.3,63.7C2403.9,653.2,2439.6,658.9,2454.1,658.9Z" transform="translate(-1255 -222)" style="fill: #fff"/>
      <path d="M2723.8,582.4l61.7-98.4H2845V705h-64V582.5L2737.5,652h-30.7L2667,582.6V706h-64V483h58.9Z" transform="translate(-1255 -222)" style="fill: #fff"/>
      <path d="M3010.8,483l92.4,222h-70.3l-13.6-43h-68.2l-15,43-66.4-.3L2956.5,483Zm-9.2,133-17.9-53-17.9,53Z" transform="translate(-1255 -222)" style="fill: #fff"/>
      <path d="M3532.8,484l-11.2,54H3461V705h-65V538h-64V484Z" transform="translate(-1255 -222)" style="fill: #fff"/>
      <path d="M1595,770h14v97h-14V825h-52v43h-13V771h13v41h52Z" transform="translate(-1255 -222)" style="fill: #fff"/>
      <path d="M1771.8,769.7c15,0,27.4,4.7,37.4,14.2s14.9,21.3,15,35.6-5,26.1-15.1,35.4-22.7,14-38,14-26.8-4.7-36.5-14-14.6-21.1-14.6-35.2,4.9-26.4,14.7-35.9S1756.8,769.7,1771.8,769.7Zm-.4,11.6q-17.7,0-29.1,10.8t-11.4,27.6c0,10.8,3.8,19.9,11.4,27.1s17.2,10.8,28.6,10.8,21.1-3.7,28.8-11,11.5-16.5,11.5-27.5a35.6,35.6,0,0,0-11.5-26.9c-7.6-7.3-17.1-10.9-28.3-10.9Z" transform="translate(-1255 -222)" style="fill: #fff"/>
      <path d="M2025.1,771h9.9v97h-12V797.3L1993.3,838h-8.8L1952,792.9V868h-12V770h11.5l36.7,53.6Z" transform="translate(-1255 -222)" style="fill: #fff"/>
      <path d="M2166,771h49.8l-2.3,11H2177v34h33v9h-33v31h39v12h-50Z" transform="translate(-1255 -222)" style="fill: #fff"/>
      <path d="M2575,772h49.8l-2.3,11H2586v34h33v9h-33v31h39v12h-50Z" transform="translate(-1255 -222)" style="fill: #fff"/>
      <path d="M3230,770h49.6l-2.2,11H3241v34h33v9h-33v32h39v11h-50Z" transform="translate(-1255 -222)" style="fill: #fff"/>
      <path d="M2444,847.1v15.6c-8.9,5.7-19.6,8.5-31.6,8.5q-14.7,0-24.9-6.6a47.6,47.6,0,0,1-16.2-18.3,54.2,54.2,0,0,1-6-25.3c0-14.4,4.5-26.5,13.6-36.3a43.9,43.9,0,0,1,33.7-14.7c9.2,0,19.5,2.7,30.4,8.1v15.2c-10-6.7-20-10-29.8-10a32.8,32.8,0,0,0-25,10.7c-6.6,7.1-10,16.1-10,26.9s3.3,19.8,9.8,26.7,14.9,10.5,25.1,10.5S2434.2,854.4,2444,847.1Z" transform="translate(-1255 -222)" style="fill: #fff"/>
      <path d="M2855,770h13v97h-11.2L2796,792.3V867h-13V770h10.6l61.4,75.3Z" transform="translate(-1255 -222)" style="fill: #fff"/>
      <path d="M2999,770h78l-5.8,9H3043v88h-13V779h-31Z" transform="translate(-1255 -222)" style="fill: #fff"/>
      <path d="M3443,867.2V770h22.2c26.4-.1,31.9,17.7,31.9,27.2s-6.9,23.3-19.2,26a39.8,39.8,0,0,1,8.2,8.2c2.7,3.5,25.4,35.6,25.4,35.6h-15.4s-20.9-41-31.8-41H3453v41Zm15.7-87.2H3454v36h6q12,0,16.5-2.1a15.8,15.8,0,0,0,6.9-6.4,19.6,19.6,0,0,0,2.5-9.8,18.1,18.1,0,0,0-2.7-9.8,14.9,14.9,0,0,0-7.8-6.2c-3.4-1.1-8.9-1.7-16.7-1.7Z" transform="translate(-1255 -222)" style="fill: #fff"/>
    </g>
  </g>
</svg>
