<svg xmlns="http://www.w3.org/2000/svg" version="1.1" xmlns:xlink="http://www.w3.org/1999/xlink" xmlns:svgjs="http://svgjs.dev/svgjs" width="1440" height="560" preserveAspectRatio="none" viewBox="0 0 1440 560"><g mask="url(&quot;#SvgjsMask1002&quot;)" fill="none"><rect width="1440" height="560" x="0" y="0" fill="#1e3266"></rect><path d="M1488 560L0 560 L0 293.36Q60.42 233.78, 120 294.21Q189.86 292.07, 192 361.93Q201.72 299.65, 264 309.37Q314.14 239.51, 384 289.66Q440.27 273.93, 456 330.2Q502.61 304.81, 528 351.41Q548.38 299.8, 600 320.18Q684.46 284.64, 720 369.11Q737.19 266.31, 840 283.5Q896.27 267.77, 912 324.05Q959.9 299.96, 984 347.86Q1022.45 266.31, 1104 304.76Q1194.28 275.04, 1224 365.32Q1235.67 305, 1296 316.67Q1347.9 248.57, 1416 300.47Q1476.63 289.1, 1488 349.73z" fill="#182f5d"></path><path d="M1512 560L0 560 L0 374.49Q57.31 311.8, 120 369.11Q210.09 339.2, 240 429.29Q268.81 386.11, 312 414.92Q344.7 327.63, 432 360.33Q501.3 309.63, 552 378.93Q628.11 335.03, 672 411.14Q745.36 364.5, 792 437.86Q806.8 380.66, 864 395.46Q893.16 352.62, 936 381.78Q991.72 365.5, 1008 421.21Q1039.15 332.36, 1128 363.51Q1176.24 339.75, 1200 388Q1246.85 362.85, 1272 409.69Q1337.95 355.64, 1392 421.6Q1427.23 336.83, 1512 372.05z" fill="#25467d"></path><path d="M1488 560L0 560 L0 496.86Q3.07 427.93, 72 431Q124.24 411.24, 144 463.48Q198.12 445.6, 216 499.71Q269.92 433.63, 336 487.55Q388.79 420.34, 456 473.13Q504.46 401.59, 576 450.05Q660.25 414.3, 696 498.55Q724.96 407.5, 816 436.46Q890.63 391.08, 936 465.71Q966.38 424.1, 1008 454.48Q1078.84 405.32, 1128 476.16Q1136.07 412.23, 1200 420.29Q1243.7 391.99, 1272 435.69Q1342.94 434.63, 1344 505.58Q1356.94 446.52, 1416 459.47Q1459.38 430.85, 1488 474.23z" fill="#356cb1"></path><path d="M1464 560L0 560 L0 542.06Q51.62 521.68, 72 573.31Q138.24 519.54, 192 585.78Q196.88 518.65, 264 523.53Q315.67 455.2, 384 506.88Q445.25 496.13, 456 557.37Q525.7 507.07, 576 576.77Q610.32 491.09, 696 525.4Q746.45 503.85, 768 554.3Q796.61 510.91, 840 539.52Q862.45 489.97, 912 512.43Q963.65 444.08, 1032 495.74Q1135.69 479.43, 1152 583.13Q1165.64 524.77, 1224 538.41Q1264.96 459.38, 1344 500.34Q1415.82 452.16, 1464 523.98z" fill="rgba(255, 250, 242, 1)"></path></g><defs><mask id="SvgjsMask1002"><rect width="1440" height="560" fill="#ffffff"></rect></mask></defs></svg>